<?xml version="1.0" standalone="no"?>
<!DOCTYPE svg PUBLIC "-//W3C//DTD SVG 20010904//EN"
 "http://www.w3.org/TR/2001/REC-SVG-20010904/DTD/svg10.dtd">
<svg version="1.0" xmlns="http://www.w3.org/2000/svg"
 width="1200.000000pt" height="1152.000000pt" viewBox="0 0 1200.000000 1152.000000"
 preserveAspectRatio="xMidYMid meet">

<g transform="translate(0.000000,1152.000000) scale(0.100000,-0.100000)"
fill="#FFFFFF" stroke="none">
<path d="M6205 11503 c-243 -28 -463 -74 -615 -129 -73 -26 -83 -27 -315 -29
-226 -2 -329 -10 -453 -36 l-52 -10 41 -47 c23 -26 61 -81 86 -122 l44 -75
-28 -22 c-15 -12 -75 -59 -133 -104 -105 -82 -306 -277 -369 -357 l-33 -42 78
36 c176 80 298 125 605 219 12 4 31 -20 73 -89 31 -52 90 -140 131 -195 79
-107 215 -265 221 -258 2 2 19 60 38 128 51 184 116 336 207 487 23 37 43 68
44 70 6 7 337 41 489 51 88 6 220 11 295 11 l136 1 -40 21 c-120 64 -302 133
-584 224 -15 5 26 40 123 107 68 46 214 120 290 147 l51 19 -150 -1 c-82 -1
-163 -3 -180 -5z"/>
<path d="M7635 10979 c7 -45 -18 -226 -33 -241 -4 -4 -53 12 -109 36 -200 89
-435 160 -646 196 -66 11 -124 20 -129 20 -6 0 36 -33 93 -74 57 -40 149 -111
204 -157 112 -95 381 -353 397 -382 8 -16 -2 -37 -55 -115 -72 -110 -193 -266
-276 -360 -31 -35 -64 -74 -73 -86 l-17 -23 112 24 c168 35 437 72 573 79
l122 7 32 -44 c112 -153 305 -464 409 -659 l61 -115 0 135 c0 165 -14 320 -45
505 -13 77 -22 142 -19 144 2 2 40 -5 83 -17 84 -22 183 -65 240 -103 l34 -23
-48 93 c-103 200 -243 383 -415 542 -85 80 -108 107 -145 179 -85 162 -225
360 -320 450 l-37 35 7 -46z"/>
<path d="M4144 10882 c-364 -325 -636 -725 -789 -1164 -37 -105 -87 -296 -99
-378 l-7 -45 19 41 c42 89 222 362 282 428 5 5 23 -20 40 -55 42 -83 122 -216
154 -254 l25 -30 1 75 c0 102 26 320 55 465 l24 120 73 69 c89 85 279 243 371
311 l69 50 -62 3 c-33 2 -117 -7 -186 -18 -69 -12 -128 -19 -130 -17 -8 7 149
308 201 387 66 99 67 100 62 100 -2 0 -48 -40 -103 -88z"/>
<path d="M5486 10209 c-46 -132 -107 -495 -127 -761 l-13 -156 -200 -83 c-184
-75 -501 -215 -571 -252 l-29 -15 50 -24 c73 -37 333 -141 523 -209 91 -33
182 -65 201 -72 l35 -13 22 -193 c11 -107 33 -264 48 -350 28 -161 80 -405 91
-422 3 -6 43 54 88 133 89 153 221 368 329 535 l66 102 73 -20 c304 -85 943
-228 956 -214 3 3 -44 56 -104 118 -61 62 -153 159 -205 217 -90 99 -337 393
-353 418 -8 13 250 372 471 657 77 99 140 181 139 182 -8 10 -566 -139 -843
-224 -101 -31 -184 -55 -186 -52 -54 69 -259 386 -371 574 -90 150 -84 142
-90 124z"/>
<path d="M3706 9317 c-76 -129 -154 -296 -201 -429 l-37 -107 -102 -50 c-55
-27 -113 -62 -129 -78 -27 -29 -27 -30 -12 -74 20 -55 65 -137 120 -214 l42
-60 1 -138 c3 -207 36 -402 98 -576 l27 -73 23 79 c12 44 34 108 47 144 32 84
115 249 126 249 4 0 28 -15 52 -33 134 -102 427 -292 436 -283 2 1 -23 59 -56
127 -66 140 -118 273 -167 433 l-34 109 47 56 c139 166 311 338 498 499 l50
43 -115 -6 c-159 -9 -417 -34 -509 -50 -42 -7 -79 -10 -83 -7 -6 7 -42 294
-56 452 l-7 85 -59 -98z"/>
<path d="M8256 8940 c-73 -187 -189 -455 -268 -621 l-70 -146 -61 -7 c-200
-21 -571 -16 -763 11 l-49 6 64 -74 c96 -110 388 -399 453 -448 l57 -43 -65
-104 c-84 -137 -216 -334 -271 -406 -23 -31 -43 -58 -43 -61 0 -2 33 4 73 15
221 59 448 159 625 275 l52 35 38 -28 c51 -40 114 -104 151 -154 l30 -41 24
48 c57 113 105 278 131 455 14 91 17 98 81 192 131 193 243 464 284 682 l9 46
-31 -39 c-54 -67 -128 -130 -210 -178 -106 -64 -111 -63 -114 5 -5 90 -43 456
-61 585 l-18 120 -48 -125z"/>
<path d="M4220 7642 c0 -27 112 -288 198 -462 53 -107 98 -198 100 -202 6 -12
-157 -58 -263 -74 -95 -15 -242 -14 -291 2 -26 8 48 -59 116 -106 153 -104
371 -190 628 -246 l113 -24 107 -109 c118 -119 229 -206 339 -264 69 -36 193
-87 213 -87 5 0 1 19 -9 43 -31 73 -70 269 -71 358 0 3 107 9 238 13 130 5
266 11 302 15 l65 6 -55 25 c-72 31 -476 234 -515 258 l-31 19 8 99 c11 140
34 324 64 499 14 83 28 168 31 189 l6 39 -99 -87 c-128 -113 -303 -247 -439
-335 l-108 -70 -66 46 c-149 105 -365 276 -513 406 -38 32 -68 55 -68 49z"/>
<path d="M7165 6948 c-87 -121 -196 -250 -315 -372 l-105 -108 -270 5 c-148 3
-310 11 -358 17 -49 6 -91 10 -93 7 -9 -8 191 -166 282 -223 52 -31 91 -61 88
-66 -14 -22 -246 -129 -344 -159 l-65 -19 150 5 c360 11 708 101 1060 275 181
89 355 196 496 306 81 63 195 164 184 164 -3 0 -36 -17 -73 -38 -144 -81 -345
-157 -516 -195 l-68 -16 6 32 c25 120 29 448 7 462 -4 2 -34 -33 -66 -77z"/>
<path d="M5707 5329 c-708 -58 -1353 -347 -1867 -836 l-101 -96 45 -46 45 -45
108 105 c274 266 617 486 971 623 584 226 1258 252 1865 71 452 -134 833 -357
1191 -696 l87 -82 42 41 41 42 -49 51 c-28 28 -98 93 -156 143 -610 525 -1425
791 -2222 725z"/>
<path d="M5394 4981 c-122 -25 -229 -53 -238 -60 -9 -7 -16 -26 -16 -42 0 -62
101 -525 125 -575 51 -105 140 -120 395 -65 80 17 145 31 146 31 2 0 -29 134
-32 138 -2 2 -72 -11 -157 -28 -90 -19 -166 -30 -181 -26 -32 8 -54 50 -58
107 l-3 44 165 34 c91 19 166 36 168 37 8 5 -24 127 -35 131 -7 3 -78 -9 -158
-26 -81 -17 -154 -31 -164 -31 -14 0 -21 16 -34 77 -9 42 -14 80 -9 84 4 4 84
21 177 39 94 18 175 35 181 39 18 10 -15 141 -35 140 -9 0 -116 -22 -237 -48z"/>
<path d="M6430 4944 c-45 -19 -68 -41 -90 -84 -24 -48 -152 -538 -148 -570 3
-26 44 -52 103 -64 l31 -7 38 155 38 154 170 -44 c94 -25 171 -44 173 -42 4 5
34 132 32 134 -1 2 -76 22 -167 45 -91 23 -166 43 -167 44 -5 2 25 102 36 123
17 32 71 29 221 -13 69 -19 132 -35 141 -35 11 0 21 19 34 65 9 36 16 68 14
70 -2 2 -75 22 -162 44 -169 44 -240 50 -297 25z"/>
<path d="M4468 4623 l-56 -47 28 -36 c310 -383 305 -375 298 -450 -10 -101
-130 -187 -226 -161 -46 13 -99 66 -257 261 -65 80 -121 146 -125 148 -4 1
-33 -18 -64 -43 l-56 -46 161 -200 c203 -253 250 -286 395 -277 121 8 247 96
306 216 33 67 33 188 -1 252 -24 45 -328 430 -340 430 -3 -1 -32 -22 -63 -47z"/>
<path d="M7177 4293 c-185 -120 -336 -221 -334 -225 1 -5 31 -25 67 -46 l65
-38 235 153 c129 84 236 150 238 149 3 -4 -24 -102 -54 -199 l-16 -47 -28 20
c-15 11 -32 20 -37 20 -4 0 -34 -17 -66 -39 l-58 -38 72 -58 c78 -63 76 -57
45 -156 l-14 -47 64 -57 c42 -37 66 -52 69 -43 27 77 215 760 215 780 0 37
-55 88 -95 88 -23 0 -116 -55 -368 -217z"/>
<path d="M5746 4070 c-292 -34 -578 -138 -817 -298 -112 -76 -277 -216 -321
-274 l-27 -35 37 -36 37 -36 80 81 c245 247 559 411 910 474 134 24 430 25
565 1 354 -61 660 -221 921 -482 l105 -105 39 40 38 39 -94 97 c-264 270 -605
450 -979 515 -132 23 -376 32 -494 19z"/>
<path d="M598 3209 c-180 -26 -343 -119 -445 -253 -162 -214 -189 -509 -70
-761 112 -236 363 -378 641 -362 118 6 207 30 309 81 l82 41 6 55 c4 30 10 83
13 118 l7 63 -49 -36 c-191 -137 -429 -151 -584 -35 -152 115 -230 298 -208
490 29 252 185 410 404 410 152 0 263 -73 307 -202 15 -45 22 -54 45 -56 l27
-4 -6 59 c-4 32 -9 124 -13 206 l-7 147 -51 15 c-111 31 -287 42 -408 24z"/>
<path d="M11364 3126 c-184 -35 -296 -102 -352 -210 -20 -40 -27 -70 -30 -139
-4 -83 -3 -91 28 -153 54 -110 150 -167 410 -244 240 -71 285 -104 277 -208
-7 -104 -98 -157 -267 -157 -124 0 -194 22 -261 83 -52 46 -84 97 -104 167 -9
30 -18 41 -35 43 -23 4 -23 3 -17 -80 4 -45 7 -133 7 -194 l0 -112 78 -20
c127 -34 233 -45 375 -39 207 9 320 49 424 152 70 70 93 127 93 230 0 90 -23
155 -74 212 -63 69 -135 104 -352 169 -104 31 -205 65 -226 75 -54 28 -78 63
-78 118 0 91 60 143 188 161 182 26 349 -58 399 -202 14 -37 23 -48 39 -48 21
0 21 2 16 158 -2 86 -8 167 -13 179 -19 52 -361 90 -525 59z"/>
<path d="M8490 3104 c-214 -56 -379 -231 -425 -449 -59 -282 72 -587 304 -709
98 -51 184 -69 306 -63 323 15 550 242 572 570 20 310 -163 581 -442 652 -74
19 -241 19 -315 -1z m271 -191 c135 -73 213 -247 213 -478 0 -101 -4 -129 -22
-177 -53 -133 -148 -203 -273 -202 -205 1 -350 213 -353 514 -1 145 32 238
112 314 75 71 223 84 323 29z"/>
<path d="M1400 3083 c0 -16 6 -23 20 -23 11 0 29 -9 40 -20 19 -19 20 -33 20
-539 l0 -520 -26 -20 c-15 -12 -33 -21 -40 -21 -8 0 -14 -8 -14 -18 0 -18 13
-19 220 -19 208 0 220 1 220 18 0 12 -7 19 -20 19 -12 0 -32 11 -45 25 l-25
24 0 226 0 225 225 0 225 0 0 -223 c0 -245 -3 -260 -60 -272 -20 -4 -30 -13
-30 -24 0 -17 16 -18 220 -18 207 0 220 1 220 19 0 10 -6 18 -14 18 -7 0 -25
9 -40 21 l-26 20 0 520 c0 506 1 520 20 539 11 11 29 20 40 20 14 0 20 7 20
23 l0 22 -220 0 -220 0 0 -22 c0 -18 6 -23 24 -23 15 0 33 -11 45 -26 20 -25
21 -40 21 -220 l0 -194 -225 0 -225 0 0 194 c0 180 1 195 21 220 12 15 30 26
45 26 18 0 24 5 24 23 l0 22 -220 0 -220 0 0 -22z"/>
<path d="M3200 3083 c0 -16 6 -23 18 -23 21 0 52 -30 52 -50 0 -14 -372 -963
-397 -1013 -8 -15 -29 -35 -48 -44 -19 -9 -35 -24 -35 -33 0 -15 21 -16 190
-16 174 0 190 1 190 17 0 11 -11 20 -29 24 -67 15 -68 48 -8 210 l45 120 182
0 183 0 33 -96 c56 -169 55 -211 -9 -227 -21 -5 -33 -15 -35 -28 -3 -19 3 -20
233 -20 207 0 235 1 235 15 0 9 -17 25 -37 36 -24 13 -44 35 -58 65 -12 25
-97 279 -189 565 l-168 520 -174 0 c-174 0 -174 0 -174 -22z m215 -353 c10
-46 30 -131 46 -187 16 -57 29 -108 29 -113 0 -6 -49 -10 -125 -10 -69 0 -125
2 -125 5 0 3 29 86 64 183 36 97 68 190 72 206 9 39 18 21 39 -84z"/>
<path d="M4290 3084 c0 -15 9 -23 38 -30 l37 -9 3 -100 c3 -102 -34 -889 -44
-935 -8 -36 -32 -59 -70 -66 -23 -4 -34 -12 -34 -23 0 -15 20 -17 205 -17 186
0 205 1 205 17 0 11 -14 20 -45 28 -79 20 -78 14 -70 388 4 181 10 358 14 395
l6 67 174 -454 174 -455 78 0 77 0 29 83 c17 45 86 247 154 449 68 202 125
365 127 364 6 -6 52 -635 52 -713 0 -76 -2 -83 -25 -102 -14 -11 -39 -23 -55
-26 -19 -4 -30 -13 -30 -24 0 -16 20 -17 235 -17 217 0 235 1 235 17 0 11 -13
22 -34 29 -19 6 -39 17 -45 24 -12 14 -73 781 -75 946 l-1 115 32 15 c21 9 33
22 33 35 0 19 -6 20 -192 19 l-191 -2 -141 -416 c-77 -229 -143 -416 -146
-416 -3 0 -77 188 -164 418 l-157 417 -195 0 c-190 0 -194 0 -194 -21z"/>
<path d="M7320 3083 c0 -15 6 -23 18 -23 10 0 28 -7 40 -16 l22 -15 0 -520 c0
-325 -4 -527 -10 -539 -5 -10 -23 -21 -40 -25 -19 -4 -30 -13 -30 -24 0 -16
18 -17 220 -17 202 0 220 1 220 17 0 11 -11 20 -29 24 -58 12 -56 -6 -56 557
l0 520 24 19 c13 10 32 19 42 19 13 0 19 7 19 23 l0 22 -220 0 -220 0 0 -22z"/>
<path d="M9540 3083 c0 -16 6 -23 20 -23 11 0 29 -9 40 -20 19 -19 20 -33 20
-533 0 -556 1 -547 -55 -561 -15 -4 -25 -14 -25 -24 0 -15 16 -17 175 -17 156
0 175 1 175 16 0 11 -12 19 -34 23 -18 4 -42 16 -52 27 -18 20 -19 46 -22 446
-1 233 1 422 6 420 4 -3 142 -215 307 -471 l299 -466 98 0 98 0 0 558 c0 431
3 562 13 575 6 10 26 21 42 25 18 5 31 16 33 28 3 18 -5 19 -178 19 l-180 0 0
-22 c0 -19 6 -23 30 -23 33 0 67 -28 75 -62 3 -13 4 -178 3 -367 l-3 -344
-251 407 -251 407 -192 2 -191 2 0 -22z"/>
<path d="M6040 3076 c0 -18 5 -26 18 -26 10 0 28 -7 40 -16 l22 -15 0 -504 c0
-355 -3 -511 -11 -529 -7 -14 -25 -29 -40 -35 -18 -6 -29 -17 -29 -28 0 -18
13 -19 236 -20 228 0 235 0 232 19 -2 13 -17 25 -42 33 -75 26 -71 -6 -74 502
-1 251 1 460 5 464 16 16 147 22 205 10 116 -24 168 -91 168 -214 0 -89 -15
-137 -56 -186 -47 -55 -100 -74 -209 -75 -49 -1 -89 -5 -87 -9 1 -4 2 -11 2
-17 0 -13 55 -41 115 -56 151 -41 338 11 429 118 54 63 79 137 79 238 0 177
-75 281 -245 342 -60 21 -80 23 -410 26 l-348 4 0 -26z"/>
<path d="M6308 1325 c-84 -21 -155 -60 -218 -121 -189 -180 -186 -533 6 -714
145 -137 361 -156 515 -45 27 19 51 35 53 35 2 0 11 -20 20 -45 17 -43 20 -45
57 -45 l39 0 0 175 c0 173 0 176 25 200 13 14 31 25 40 25 8 0 15 8 15 18 0
16 -15 17 -185 17 l-185 0 0 -22 c0 -19 5 -23 33 -23 18 0 38 -5 45 -12 17
-17 16 -162 -3 -197 -22 -43 -75 -64 -150 -59 -76 5 -129 36 -175 103 -56 82
-74 146 -75 270 0 98 3 116 26 165 61 130 186 191 332 160 76 -15 135 -60 167
-127 16 -34 31 -52 43 -53 18 0 18 8 12 123 -4 67 -10 125 -14 130 -4 4 -34
17 -67 29 -77 28 -270 35 -356 13z"/>
<path d="M3050 1308 c0 -10 6 -18 14 -18 8 0 22 -7 30 -16 14 -13 16 -65 16
-414 0 -349 -2 -401 -16 -414 -8 -9 -22 -16 -30 -16 -8 0 -14 -9 -14 -20 0
-20 7 -20 348 -20 l349 0 11 93 c6 50 15 113 18 140 6 42 5 47 -12 47 -14 0
-24 -14 -37 -49 -10 -28 -31 -61 -48 -75 -30 -26 -33 -26 -195 -26 l-164 0 0
360 0 361 25 24 c13 14 31 25 40 25 8 0 15 8 15 18 0 16 -15 17 -175 17 -160
0 -175 -1 -175 -17z"/>
<path d="M5210 1309 c0 -9 9 -19 20 -22 11 -3 23 -12 26 -21 5 -14 -262 -710
-302 -789 -8 -15 -26 -33 -39 -39 -14 -6 -25 -18 -25 -27 0 -14 19 -16 145
-16 124 0 145 2 145 15 0 9 -13 21 -30 27 -25 9 -30 16 -29 45 0 18 15 71 33
118 l33 85 141 3 141 3 31 -98 c36 -110 34 -139 -10 -155 -17 -5 -30 -17 -30
-26 0 -15 19 -17 180 -17 162 0 180 2 180 17 0 9 -8 19 -19 23 -10 3 -26 14
-36 25 -10 11 -79 209 -154 441 l-137 422 -132 1 c-116 1 -132 -1 -132 -15z
m150 -219 c0 -15 39 -172 66 -267 6 -23 5 -23 -94 -23 l-100 0 28 73 c15 39
40 111 56 159 26 80 44 104 44 58z"/>
<path d="M7080 1310 c0 -9 13 -21 29 -27 l29 -11 4 -333 c5 -381 8 -400 84
-475 63 -63 151 -88 309 -88 245 0 355 73 384 254 6 36 11 192 11 347 0 243 2
284 16 297 8 9 22 16 30 16 8 0 14 8 14 18 0 15 -15 17 -175 17 -160 0 -175
-1 -175 -17 0 -11 8 -18 20 -18 11 0 29 -9 41 -21 19 -19 20 -29 17 -342 -3
-357 -5 -367 -71 -407 -46 -28 -178 -28 -224 0 -66 40 -68 50 -71 407 -3 314
-3 322 17 342 12 12 30 21 41 21 12 0 20 7 20 18 0 16 -15 17 -175 17 -150 0
-175 -2 -175 -15z"/>
<path d="M3950 1304 c0 -8 13 -20 29 -25 16 -6 32 -20 35 -32 3 -12 6 -191 6
-397 0 -324 -2 -379 -16 -398 -8 -12 -24 -22 -35 -22 -12 0 -19 -7 -19 -20 0
-20 7 -20 374 -20 l373 0 7 117 c4 65 9 126 12 136 4 13 0 17 -18 17 -21 0
-27 -9 -42 -55 -27 -86 -37 -89 -248 -93 l-178 -4 0 151 0 151 113 0 c61 0
117 -4 124 -8 6 -4 16 -20 22 -35 6 -15 17 -27 26 -27 13 0 15 21 15 135 0
105 -3 135 -13 135 -7 0 -20 -15 -28 -32 l-14 -33 -122 -3 -123 -3 0 136 0
135 173 0 c193 0 207 -4 227 -65 8 -25 17 -35 32 -35 18 0 20 4 14 38 -3 20
-6 67 -6 105 l0 67 -360 0 c-319 0 -360 -2 -360 -16z"/>
<path d="M8230 1306 c0 -8 12 -21 28 -28 l27 -13 3 -408 2 -409 -30 -11 c-18
-7 -30 -19 -30 -29 0 -17 22 -18 375 -18 l375 0 1 63 c0 34 4 95 8 134 7 71 6
73 -15 73 -19 0 -25 -10 -39 -55 -25 -86 -35 -90 -250 -90 l-180 0 0 150 0
150 80 3 c44 2 99 0 123 -3 38 -6 46 -11 58 -41 8 -19 21 -34 29 -34 13 0 15
22 15 135 0 115 -2 135 -15 135 -9 0 -18 -8 -22 -17 -17 -49 -30 -53 -155 -53
l-118 0 0 135 0 135 178 0 c198 0 212 -4 232 -65 8 -25 17 -35 32 -35 18 0 20
4 14 31 -3 17 -6 65 -6 105 l0 74 -360 0 c-307 0 -360 -2 -360 -14z"/>
<path d="M9170 338 c-79 -22 -120 -79 -120 -166 0 -87 62 -152 153 -160 152
-12 240 152 146 273 -39 48 -116 71 -179 53z m125 -42 c55 -36 76 -143 38
-194 -34 -46 -67 -64 -117 -64 -54 0 -89 19 -116 65 -58 94 20 225 127 214 24
-3 54 -12 68 -21z"/>
<path d="M9150 175 c0 -78 3 -95 15 -95 11 0 15 11 15 40 0 55 31 55 62 0 13
-23 31 -40 41 -40 15 0 14 5 -9 40 l-27 41 21 15 c24 17 30 62 10 82 -7 7 -38
12 -70 12 l-58 0 0 -95z m108 63 c20 -20 -4 -48 -43 -48 -32 0 -35 2 -35 30 0
27 3 30 33 30 18 0 38 -5 45 -12z"/>
</g>
</svg>
