<?xml version="1.0" standalone="no"?>
<!DOCTYPE svg PUBLIC "-//W3C//DTD SVG 20010904//EN"
        "http://www.w3.org/TR/2001/REC-SVG-20010904/DTD/svg10.dtd">
<svg version="1.0" xmlns="http://www.w3.org/2000/svg"
     width="1334.000000pt" height="1541.000000pt" viewBox="0 0 1334.000000 1541.000000"
     preserveAspectRatio="xMidYMid meet">

    <g transform="translate(0.000000,1541.000000) scale(0.100000,-0.100000)"
       fill="#FFFFFF" stroke="none">
        <path d="M6730 13483 c-241 -23 -471 -67 -644 -125 l-121 -40 -250 -2 c-242
-3 -456 -23 -478 -45 -5 -5 5 -24 21 -42 56 -64 122 -169 122 -194 0 -19 -12
-34 -47 -58 -140 -97 -473 -408 -473 -442 0 -19 34 -19 50 0 7 8 16 15 21 15
5 0 28 9 52 19 137 63 482 181 529 181 11 0 51 -51 112 -143 79 -120 166 -235
277 -365 33 -39 51 -25 70 53 59 245 227 596 291 609 107 23 513 55 740 59
107 2 126 9 95 36 -31 25 -430 175 -519 195 -44 10 -35 40 25 84 78 57 193
125 272 160 38 17 71 35 73 41 4 11 -128 13 -218 4z"/>
        <path d="M8137 12873 c-12 -170 -33 -196 -125 -149 -84 43 -240 101 -377 141
-119 34 -364 86 -375 80 -16 -10 -11 -35 8 -42 33 -12 203 -145 339 -266 130
-116 313 -301 313 -317 0 -25 -235 -343 -354 -480 -36 -41 -62 -78 -57 -83 5
-5 35 -2 67 7 97 26 277 54 493 76 202 22 204 22 230 2 56 -42 267 -366 417
-642 42 -77 80 -140 84 -140 17 0 18 34 10 186 -10 170 -32 353 -56 472 -17
81 -14 102 15 102 32 0 170 -49 230 -81 84 -45 103 -35 58 32 -13 19 -26 41
-29 50 -11 29 -99 162 -169 255 -38 50 -126 147 -197 215 -116 112 -134 134
-190 236 -34 62 -80 139 -102 172 -64 95 -199 261 -214 261 -9 0 -15 -24 -19
-87z"/>
        <path d="M4505 12778 c-289 -278 -515 -598 -654 -928 -18 -41 -36 -84 -42 -95
-37 -80 -124 -388 -115 -411 9 -24 25 -16 41 23 37 87 216 333 243 333 11 0
34 -33 66 -92 75 -143 113 -198 136 -198 19 0 20 7 20 88 0 144 50 485 78 538
21 40 363 336 435 378 34 19 56 50 44 62 -7 7 -213 -15 -264 -28 -47 -11 -73
-6 -73 16 0 21 129 271 178 344 43 64 50 82 33 82 -6 0 -62 -50 -126 -112z"/>
        <path d="M5922 12063 c-48 -201 -94 -504 -108 -720 -8 -119 -8 -118 -109 -157
-38 -15 -79 -31 -90 -36 -11 -5 -83 -36 -160 -68 -225 -95 -419 -184 -427
-195 -11 -18 3 -36 40 -48 21 -6 48 -18 62 -25 27 -15 207 -89 255 -106 17 -5
44 -16 60 -23 17 -6 104 -38 194 -70 123 -44 165 -64 172 -79 4 -12 17 -102
29 -201 11 -99 27 -218 35 -265 36 -207 46 -260 64 -346 27 -127 47 -159 72
-113 33 59 119 208 159 274 27 44 63 105 81 135 19 30 49 80 69 110 20 30 58
90 86 132 27 42 57 80 67 83 9 4 39 0 65 -8 143 -44 521 -135 757 -182 44 -8
104 -23 134 -31 91 -27 85 -8 -35 118 -229 239 -553 618 -554 648 0 21 364
519 561 768 47 58 44 81 -7 62 -16 -7 -65 -20 -109 -30 -181 -41 -389 -98
-660 -183 -186 -58 -196 -60 -211 -50 -30 22 -324 474 -414 637 -42 76 -53 72
-78 -31z"/>
        <path d="M4158 11293 c-47 -53 -200 -383 -249 -533 -13 -43 -19 -48 -116 -100
-99 -53 -141 -83 -156 -107 -13 -21 45 -142 125 -258 l48 -69 0 -101 c0 -198
36 -434 90 -595 22 -65 45 -77 55 -28 23 107 114 323 159 376 27 31 39 28 99
-21 60 -49 331 -230 371 -248 14 -7 29 -10 32 -6 3 3 -8 32 -24 65 -97 191
-229 557 -215 598 17 49 370 418 518 542 33 28 46 45 40 51 -10 10 -249 -1
-315 -14 -14 -3 -77 -10 -140 -15 -63 -6 -134 -16 -158 -22 -36 -9 -46 -8 -59
4 -18 18 -49 212 -60 377 -8 117 -17 136 -45 104z"/>
        <path d="M8786 10928 c-50 -171 -332 -812 -366 -833 -18 -11 -277 -35 -385
-35 -55 0 -176 7 -270 15 -208 18 -195 18 -195 1 0 -27 274 -314 438 -458 56
-49 102 -95 102 -101 0 -21 -258 -420 -319 -494 -35 -42 -42 -79 -13 -70 9 3
53 17 97 30 204 62 366 135 537 241 53 33 82 46 96 42 24 -8 150 -127 179
-171 18 -25 23 -27 37 -16 16 14 46 67 46 84 0 5 7 23 15 40 26 56 64 201 80
308 21 137 23 142 101 260 74 113 169 305 207 419 62 187 79 260 60 260 -3 0
-38 -31 -77 -69 -39 -37 -97 -83 -128 -101 -32 -17 -61 -36 -64 -41 -9 -15
-61 -10 -68 7 -3 9 -6 37 -6 64 0 76 -47 505 -66 603 -6 27 -32 38 -38 15z"/>
        <path d="M4675 9498 c29 -95 236 -542 266 -572 5 -6 9 -22 9 -37 0 -20 -7 -29
-27 -37 -136 -51 -328 -80 -434 -66 -38 5 -72 8 -74 6 -10 -10 39 -56 107
-100 180 -118 428 -209 725 -268 12 -2 61 -45 110 -95 147 -152 282 -253 423
-316 41 -19 83 -38 92 -43 27 -15 58 -12 58 5 0 9 -7 32 -16 53 -21 49 -54
224 -54 284 0 41 3 48 23 52 12 3 126 8 252 11 231 6 295 11 295 24 0 4 -66
38 -146 76 -162 77 -391 198 -413 220 -13 13 -13 38 3 192 16 171 40 336 71
510 17 94 18 113 7 113 -5 0 -46 -32 -91 -72 -194 -170 -499 -388 -543 -388
-41 0 -388 260 -570 427 -53 48 -84 57 -73 21z"/>
        <path d="M7628 8803 c-150 -201 -356 -422 -411 -442 -37 -14 -263 -14 -462 1
-209 15 -230 15 -230 2 0 -15 141 -128 240 -192 116 -74 113 -71 79 -99 -33
-27 -134 -77 -242 -119 -58 -22 -69 -30 -56 -37 48 -27 499 40 704 105 205 64
491 190 625 273 22 14 56 34 75 45 73 42 297 206 344 252 16 16 26 32 23 35
-4 3 -53 -17 -109 -45 -117 -57 -230 -99 -370 -136 -112 -30 -133 -27 -123 18
4 17 9 122 12 234 4 176 3 202 -10 202 -9 0 -49 -44 -89 -97z"/>
        <path d="M6205 7194 c-16 -2 -91 -11 -166 -19 -484 -53 -1001 -249 -1399 -531
-174 -123 -460 -371 -460 -398 0 -15 65 -76 80 -76 6 0 20 12 33 26 36 43 256
236 342 301 350 263 742 442 1165 532 222 47 291 54 566 58 241 4 289 2 425
-17 85 -12 203 -33 264 -47 159 -36 240 -60 455 -138 186 -68 485 -238 696
-396 90 -67 290 -246 310 -276 8 -13 23 -23 33 -23 23 0 81 46 81 64 0 18
-158 169 -275 262 -130 104 -266 197 -409 278 -102 58 -298 156 -312 156 -3 0
-29 11 -57 24 -187 85 -544 175 -817 206 -105 12 -498 22 -555 14z"/>
        <path d="M5930 6854 c-63 -14 -156 -34 -206 -45 -50 -11 -100 -26 -110 -33
-26 -19 -23 -62 15 -236 18 -80 40 -188 51 -240 25 -130 48 -179 100 -215 38
-26 49 -29 123 -29 48 0 120 9 172 21 50 12 110 25 135 30 51 9 60 28 40 88
-16 47 -37 67 -58 56 -14 -7 -173 -43 -262 -58 -37 -7 -76 29 -95 87 -13 38
-14 54 -6 64 12 14 125 44 248 67 77 14 87 25 79 83 -12 78 -16 78 -289 13
-34 -8 -53 -8 -65 0 -33 20 -55 140 -29 161 14 12 57 22 212 52 157 30 148 25
141 71 -10 64 -26 89 -55 88 -14 0 -78 -12 -141 -25z"/>
        <path d="M6960 6813 c-50 -8 -100 -36 -125 -73 -26 -38 -43 -92 -100 -315 -18
-71 -40 -156 -50 -187 -25 -87 -18 -118 30 -145 22 -13 46 -23 52 -23 20 0 41
40 58 110 30 127 49 182 63 188 15 5 112 -15 227 -47 96 -28 100 -27 119 19
25 62 21 88 -11 96 -16 3 -57 14 -93 24 -36 10 -90 23 -120 30 -86 19 -104 45
-78 107 32 75 71 87 178 57 147 -42 204 -55 216 -50 7 3 20 29 29 58 12 42 13
55 3 65 -14 13 -266 78 -333 85 -22 3 -51 3 -65 1z"/>
        <path d="M4911 6471 l-53 -46 148 -185 c82 -102 157 -202 167 -223 33 -72 19
-133 -45 -193 -44 -42 -89 -64 -133 -64 -69 0 -107 31 -252 207 -76 91 -148
178 -159 192 l-22 25 -42 -29 c-48 -33 -69 -67 -53 -87 166 -213 313 -384 346
-405 145 -91 315 -62 439 76 70 78 83 111 83 216 0 109 -8 126 -126 276 -197
247 -222 278 -233 282 -7 3 -36 -16 -65 -42z"/>
        <path d="M7989 6336 c-59 -31 -174 -105 -552 -351 -50 -33 -93 -67 -95 -75 -3
-16 90 -70 120 -70 15 0 158 89 347 216 97 65 131 77 131 47 0 -34 -52 -188
-67 -200 -13 -10 -21 -9 -43 4 -26 15 -29 15 -58 -6 -17 -11 -35 -21 -41 -21
-9 0 -31 -31 -31 -44 0 -2 27 -26 60 -52 33 -25 62 -54 65 -64 3 -10 -4 -41
-15 -69 -23 -60 -21 -67 43 -129 41 -40 45 -42 61 -27 9 9 19 28 22 43 4 15
36 128 71 252 36 124 70 248 77 276 7 27 16 56 20 62 4 6 13 43 20 81 12 64
12 72 -5 97 -18 27 -54 53 -75 54 -6 0 -31 -11 -55 -24z"/>
        <path d="M6235 5910 c-148 -15 -372 -64 -450 -99 -11 -5 -40 -16 -65 -25 -56
-20 -219 -101 -283 -141 -148 -93 -397 -309 -397 -344 0 -19 40 -61 58 -61 7
0 42 31 79 68 235 235 527 394 862 468 213 48 529 45 748 -7 320 -75 588 -225
832 -466 110 -108 114 -110 155 -65 11 13 15 28 11 40 -8 27 -184 195 -276
264 -314 235 -661 358 -1054 371 -77 3 -176 2 -220 -3z"/>
        <path d="M1870 3980 c0 -5 5 -10 11 -10 5 0 7 5 4 10 -3 6 -8 10 -11 10 -2 0
-4 -4 -4 -10z"/>
        <path d="M4110 3800 c-129 -14 -253 -65 -342 -141 -61 -52 -130 -156 -165
-250 -25 -68 -28 -85 -28 -214 0 -122 3 -149 24 -209 48 -140 137 -252 253
-321 68 -40 129 -60 235 -75 68 -10 91 -9 175 8 104 22 206 62 235 94 24 26
45 148 29 165 -9 10 -16 9 -36 -2 -173 -97 -313 -114 -438 -53 -70 35 -154
124 -196 209 -42 86 -55 190 -37 297 39 237 257 386 454 311 76 -29 125 -73
153 -136 15 -33 30 -53 40 -53 15 0 16 16 9 163 -5 102 -12 165 -19 169 -41
27 -241 49 -346 38z"/>
        <path d="M10160 3799 c-274 -37 -451 -220 -490 -504 -11 -77 -10 -105 3 -190
27 -168 88 -288 195 -386 71 -65 152 -103 263 -125 82 -16 93 -16 184 1 225
40 378 170 452 382 24 70 27 92 27 213 0 120 -3 143 -26 210 -36 101 -70 160
-136 231 -117 126 -299 191 -472 168z m137 -180 c65 -25 139 -92 173 -159 58
-114 90 -308 71 -423 -23 -131 -102 -238 -201 -270 -65 -21 -94 -21 -159 0
-134 43 -226 188 -256 404 -13 97 -13 116 1 191 41 217 194 323 371 257z"/>
        <path d="M12450 3799 c-149 -14 -264 -56 -332 -123 -44 -43 -66 -82 -84 -151
-19 -68 -17 -102 6 -178 17 -54 29 -73 72 -112 70 -63 135 -94 313 -150 222
-69 269 -103 267 -192 0 -54 -35 -104 -95 -136 -37 -19 -57 -22 -162 -22 -110
0 -124 2 -170 27 -70 36 -124 92 -152 157 -34 78 -39 87 -49 81 -17 -9 -6
-307 12 -337 38 -61 369 -97 543 -59 150 33 261 108 310 209 19 39 23 64 23
141 0 80 -4 100 -25 143 -52 102 -140 154 -367 218 -201 57 -256 89 -281 162
-17 52 20 118 86 152 44 23 62 26 155 26 97 0 109 -2 164 -30 65 -34 131 -101
141 -145 5 -25 39 -50 50 -38 7 8 -12 299 -20 307 -14 14 -187 48 -265 53 -36
3 -99 1 -140 -3z"/>
        <path d="M380 3757 c0 -8 11 -20 25 -27 14 -8 28 -24 32 -38 12 -48 -33 -931
-51 -982 -8 -24 -22 -39 -44 -49 -18 -8 -31 -21 -30 -29 2 -11 36 -14 175 -15
95 0 176 2 179 6 11 10 -5 24 -35 30 -17 4 -38 19 -51 37 l-22 31 12 342 c7
207 16 347 22 355 16 19 45 -11 53 -56 4 -20 12 -50 19 -67 13 -30 19 -46 91
-235 53 -139 113 -297 138 -360 29 -75 37 -82 99 -87 43 -3 58 0 71 14 16 18
52 121 197 557 44 132 83 242 86 245 14 14 34 -37 34 -88 0 -31 7 -117 15
-191 8 -74 18 -201 21 -282 8 -167 2 -186 -63 -213 -69 -29 -28 -37 188 -37
211 -1 240 5 180 37 -17 8 -35 23 -40 33 -10 18 -32 263 -56 612 -8 118 -18
249 -21 291 -8 94 -2 122 31 137 14 6 25 18 25 27 0 13 -24 15 -167 15 -93 0
-173 -4 -179 -8 -11 -7 -200 -549 -234 -670 -10 -35 -22 -68 -28 -74 -19 -19
-47 10 -69 74 -49 144 -243 649 -256 666 -14 18 -347 17 -347 -1z"/>
        <path d="M1815 3760 c-3 -6 7 -18 24 -27 16 -10 35 -28 40 -41 16 -34 15 -963
-1 -997 -7 -15 -25 -33 -40 -41 -26 -13 -38 -33 -20 -34 72 -5 385 0 390 5 4
4 -2 12 -12 19 -60 35 -56 -1 -56 545 0 275 3 507 6 516 4 8 20 23 36 31 16 8
26 19 23 24 -8 14 -382 13 -390 0z"/>
        <path d="M2311 3763 c-10 -4 -2 -15 25 -38 l39 -33 0 -497 0 -497 -40 -33
c-22 -19 -37 -37 -33 -40 3 -4 102 -7 219 -8 159 -1 214 2 217 11 2 7 -12 19
-31 27 -19 8 -45 26 -56 41 -20 25 -21 39 -21 210 0 153 3 185 16 198 12 12
38 16 114 16 117 0 142 -8 172 -54 13 -20 28 -36 33 -36 6 0 10 58 10 155 0
85 -3 155 -7 155 -4 0 -22 -18 -39 -40 l-32 -40 -122 0 c-81 0 -125 4 -133 12
-17 17 -17 309 0 326 9 9 69 12 208 12 221 0 222 0 266 -76 26 -44 52 -54 46
-18 -1 10 -6 68 -10 127 -5 79 -11 110 -22 117 -16 10 -794 13 -819 3z"/>
        <path d="M4580 3755 c0 -8 5 -15 10 -15 6 0 22 -11 35 -25 l25 -24 0 -494 c0
-485 0 -495 -21 -521 -11 -14 -27 -26 -35 -26 -16 0 -20 -30 -4 -31 6 0 92 -1
193 -1 151 0 182 2 185 14 1 8 -9 20 -23 26 -14 7 -30 23 -35 38 -13 34 -13
400 0 425 10 18 23 19 210 19 132 0 201 -4 205 -11 9 -14 9 -410 0 -438 -3
-12 -20 -28 -37 -37 -20 -10 -27 -19 -20 -26 6 -6 138 -10 353 -10 294 -1 344
1 347 14 1 8 -9 20 -23 26 -45 21 -50 50 -22 128 58 157 67 178 79 186 12 7
252 14 303 8 33 -3 42 -17 70 -103 53 -161 51 -196 -13 -223 -25 -10 -32 -18
-25 -25 10 -10 109 -12 543 -10 52 1 109 -2 125 -5 19 -3 38 1 50 10 21 16 22
15 -52 41 -6 2 -19 15 -27 28 -14 20 -15 66 -9 375 3 193 10 357 15 364 11 18
42 -22 64 -82 9 -25 33 -90 54 -145 21 -55 78 -203 125 -330 48 -126 93 -236
100 -244 17 -17 92 -25 124 -14 19 8 31 32 63 124 22 63 46 134 53 159 7 25
41 125 74 223 34 98 61 182 61 188 0 19 50 119 59 119 18 0 22 -20 27 -138 3
-64 12 -190 20 -278 26 -291 20 -330 -52 -360 -34 -14 -45 -33 -21 -35 6 0 99
-1 206 -1 204 0 239 7 181 37 -43 22 -56 61 -64 190 -9 152 -33 490 -47 670
-14 168 -10 201 26 217 14 6 25 17 25 25 0 11 -32 13 -172 11 l-173 -3 -14
-29 c-14 -31 -176 -496 -217 -627 -13 -42 -31 -82 -39 -89 -23 -19 -42 -5 -49
35 -4 20 -14 51 -21 69 -8 17 -25 60 -39 96 -110 293 -201 527 -209 538 -14
18 -357 17 -357 -1 0 -7 15 -20 33 -28 32 -14 32 -15 35 -89 2 -41 -2 -160 -8
-265 -5 -104 -15 -287 -20 -405 -6 -118 -13 -230 -16 -248 -5 -34 -41 -66 -65
-57 -24 10 -55 67 -83 160 -16 50 -48 151 -71 225 -62 193 -173 544 -197 620
-31 102 -17 95 -179 98 -171 3 -185 0 -146 -33 15 -13 27 -34 27 -47 0 -12
-18 -68 -40 -123 -21 -55 -56 -143 -75 -195 -20 -52 -49 -129 -65 -170 -27
-68 -67 -176 -122 -320 -51 -135 -73 -183 -97 -207 -26 -28 -42 -29 -70 -5
l-21 17 2 514 3 514 29 16 c16 9 28 21 27 26 -1 14 -381 13 -382 0 -1 -5 8
-15 20 -21 42 -22 43 -27 43 -220 0 -172 -1 -189 -18 -201 -15 -11 -58 -14
-202 -11 -168 3 -185 5 -198 22 -11 15 -14 59 -14 189 0 178 5 202 46 217 13
5 24 16 24 25 0 13 -27 15 -195 15 -167 0 -195 -2 -195 -15z m1634 -292 c3
-10 13 -55 21 -100 8 -44 24 -107 35 -139 37 -105 30 -112 -112 -104 -86 5
-93 7 -96 27 -2 12 4 35 12 51 19 38 76 207 76 228 0 45 52 75 64 37z"/>
        <path d="M8216 3762 c-4 -6 7 -21 23 -33 17 -12 34 -34 38 -48 4 -14 6 -244 3
-509 l-5 -484 -29 -23 c-52 -42 -36 -46 184 -48 187 -1 205 0 208 16 3 12 -5
19 -28 23 -17 4 -39 18 -50 32 -18 23 -20 41 -20 218 0 127 4 194 10 194 6 0
38 -11 70 -25 197 -83 426 -5 508 173 22 49 26 70 26 152 -1 187 -76 289 -250
341 -61 19 -103 22 -375 26 -212 4 -308 2 -313 -5z m535 -162 c56 -16 101 -51
129 -100 20 -37 24 -58 24 -120 -1 -85 -16 -124 -72 -182 -44 -46 -100 -65
-209 -71 l-83 -4 0 232 c0 166 3 234 12 243 15 15 148 16 199 2z"/>
        <path d="M9206 3763 c-4 -4 8 -20 26 -35 l33 -27 0 -506 0 -507 -34 -29 c-19
-16 -32 -31 -29 -35 8 -8 378 -8 386 0 3 4 -11 21 -31 40 l-37 34 0 497 0 497
35 32 c19 18 32 36 28 39 -9 9 -368 9 -377 0z"/>
        <path d="M10887 3763 c-4 -3 9 -21 28 -39 l35 -32 0 -497 0 -498 -36 -34 c-20
-19 -34 -36 -31 -40 5 -4 229 -7 295 -4 23 2 12 22 -18 33 -58 20 -59 29 -60
441 -1 207 1 381 5 387 13 21 25 8 85 -87 34 -54 83 -131 108 -171 26 -40 101
-157 166 -260 237 -371 214 -340 255 -345 68 -10 123 -8 137 4 12 10 14 98 14
543 0 292 4 536 8 541 4 6 20 18 35 28 15 10 25 22 22 27 -4 6 -71 10 -156 10
-115 0 -149 -3 -149 -13 0 -7 15 -18 34 -25 21 -8 38 -23 45 -40 8 -18 10
-123 9 -332 -3 -291 -4 -305 -22 -305 -13 0 -35 28 -73 90 -30 50 -65 106 -77
125 -13 19 -83 132 -156 250 -73 118 -142 223 -152 233 -18 15 -42 17 -182 17
-90 0 -166 -3 -169 -7z"/>
        <path d="M5205 1694 c-159 -33 -244 -74 -336 -164 -73 -72 -108 -126 -147
-227 -23 -61 -26 -82 -26 -208 -1 -119 2 -150 22 -209 95 -290 372 -451 673
-392 103 21 225 76 239 108 17 42 31 141 20 152 -6 6 -38 -5 -92 -31 -150 -74
-277 -81 -390 -21 -116 62 -219 213 -233 342 -23 209 75 405 231 465 79 30
182 29 250 -3 60 -28 121 -88 132 -129 9 -34 36 -57 50 -42 14 15 -5 307 -21
322 -28 28 -289 54 -372 37z"/>
        <path d="M5693 1657 c-7 -11 16 -37 33 -37 7 0 16 -6 21 -12 4 -7 10 -202 13
-433 l5 -420 28 -60 c56 -119 137 -175 289 -200 225 -36 431 0 531 93 41 39
85 130 97 203 5 36 10 227 10 431 0 355 1 369 20 388 11 11 25 20 31 20 6 0 9
7 7 16 -3 14 -27 16 -193 17 -143 1 -190 -2 -190 -11 0 -7 11 -18 25 -25 50
-25 51 -33 48 -452 l-3 -391 -26 -49 c-38 -76 -88 -100 -204 -100 -81 1 -94 3
-132 28 -24 15 -52 45 -65 69 -23 42 -23 50 -26 428 -2 212 0 400 3 418 5 26
14 37 41 48 70 29 36 37 -165 38 -106 1 -195 -3 -198 -7z"/>
        <path d="M6887 1652 c-8 -11 -8 -16 3 -22 59 -34 55 8 58 -521 3 -512 2 -524
-44 -554 -13 -8 -24 -22 -24 -29 0 -11 26 -13 143 -9 78 3 169 0 202 -5 41 -7
64 -7 73 0 16 14 0 34 -33 42 -13 3 -33 21 -44 40 -20 32 -21 45 -21 459 0
388 2 427 17 443 15 14 30 16 104 11 97 -7 129 -17 178 -54 87 -67 96 -237 17
-346 -31 -43 -119 -81 -190 -83 -34 -1 -69 -2 -78 -3 -35 -2 -17 -29 35 -52
45 -21 67 -24 167 -24 104 1 121 3 173 28 80 37 148 109 177 186 31 83 26 232
-9 301 -47 90 -93 129 -196 170 -55 21 -79 23 -275 27 -118 2 -261 4 -318 6
-78 2 -106 -1 -115 -11z"/>
        <path d="M8328 1236 c-87 -42 -122 -101 -116 -195 3 -54 9 -73 32 -103 88
-117 244 -117 333 0 23 31 28 49 31 107 3 65 1 73 -29 119 -25 37 -46 54 -86
72 -67 30 -105 30 -165 0z m136 -30 c19 -13 49 -36 66 -52 27 -26 30 -35 30
-92 0 -68 -12 -102 -36 -102 -8 0 -24 -16 -35 -35 -20 -33 -24 -35 -75 -35
-52 0 -56 2 -104 51 l-50 51 0 68 0 68 46 31 c26 17 53 40 61 51 19 27 54 25
97 -4z"/>
        <path d="M8352 1148 c-9 -11 -10 -99 -3 -175 2 -23 31 -14 41 12 12 31 17 31
47 3 31 -29 53 -12 35 27 -9 20 -8 32 5 61 19 40 10 69 -23 69 -15 0 -20 -9
-24 -40 -7 -57 -33 -54 -40 4 -5 46 -19 61 -38 39z"/>
    </g>
</svg>
